# xmcd
#
# Track frame offsets: 
#        183
#        16915
#        35655
#        56393
#        80488
#        107408
#        127063
#        145928
#        163068
#        179560
#
# Disc length: 2729 seconds
#
# Revision: 2
# Processed by: cddbd v1.5.2PL0 Copyright (c) Steve Scherf et al.
# Submitted via: ExactAudioCopyFreeDBPlugin 1.0
#
DISCID=840aa70a
DTITLE=Gilberto Gil - Gilberto Gil - Ao Vivo em Tóquio
DYEAR=1900
DGENRE=Country
TTITLE0=Nos Barracos da Cidade
TTITLE1=Vamos Fugir
TTITLE2=Aquele Abraço
TTITLE3=Oriente
TTITLE4=Flora
TTITLE5=Sabará  Miolo
TTITLE6=Bandaum
TTITLE7=Touche Pas a Mon Pote
TTITLE8=Toda Menina Baiana
TTITLE9=Não Chore Mais
EXTD=
EXTT0=
EXTT1=
EXTT2=
EXTT3=
EXTT4=
EXTT5=
EXTT6=
EXTT7=
EXTT8=
EXTT9=
PLAYORDER=
